<svg id="qiskit" xmlns="http://www.w3.org/2000/svg" width="24px" height="24px" viewBox="0 0 200 200">
    <path fill="#fff" d="M174.09,100.19c0-.07,0-.14,0-.22s0-.44,0-.67a74.13,74.13,0,0,0-15-44,12.85,12.85,0,0,0-3.37-4.11A74.34,74.34,0,0,0,102.42,26c-.8,0-1.61-.08-2.42-.08s-1.41,0-2.11.06A74,74,0,0,0,44.23,51.21a12.68,12.68,0,0,0-3.42,4.24A74.53,74.53,0,0,0,25.91,99.7a2.45,2.45,0,0,0,0,.27c0,.13,0,.25,0,.37A73.93,73.93,0,0,0,41.12,145a11.89,11.89,0,0,0,2.3,2.88,74.38,74.38,0,0,0,54.51,26.19c.69,0,1.38.05,2.07.05s1.27,0,1.91,0a74,74,0,0,0,54.88-26.49,12.65,12.65,0,0,0,2-2.51A74.64,74.64,0,0,0,174.09,100.19Zm-20.54,44.66c-3.56,3.23-11.35,6.54-22.6,8.83a6.47,6.47,0,0,0-5.68-3.35l-.51,0L114.07,126a128.16,128.16,0,0,1,24.71,4.12c10.45,3,16.95,7.17,16.95,11a3.66,3.66,0,0,1-.44,1.62C154.73,143.4,154.15,144.13,153.55,144.85Zm-54.9,11.78c-25.6-.27-45-5.52-51.76-11.25-.77-.91-1.53-1.84-2.27-2.8a3.91,3.91,0,0,1-.35-1.53c0-3.3,5.24-8.11,19.94-11.74a152.92,152.92,0,0,1,34-3.85H100c3.14,0,6.25.08,9.3.23l11.57,26.38a6.48,6.48,0,0,0-2,3.49A181.25,181.25,0,0,1,98.65,156.63Zm-1.18,13.16c-7.52-.48-12-3-12-4.38S91,161,100,161s14.56,2.89,14.56,4.46-4.66,4-12.39,4.4C100.6,169.85,99,169.85,97.47,169.79ZM47.37,54.07c4-3.1,11.52-6,21.71-8a7,7,0,0,0,6.22,3.8,5.85,5.85,0,0,0,.73,0L86.62,74C61.15,72,44.27,65.06,44.27,58.89a4,4,0,0,1,.24-1.3C45.43,56.39,46.37,55.21,47.37,54.07ZM100,43.29c25.78,0,45.41,5.07,52.67,10.82,1,1.1,1.9,2.25,2.8,3.42a3.9,3.9,0,0,1,.26,1.36c0,6.51-21.73,15.59-57.08,15.59-2.49,0-4.91-.1-7.27-.22L79.91,48.11a7,7,0,0,0,2.26-4C87.68,43.6,93.65,43.29,100,43.29Zm-14.56-8.7c0-1.47,4.85-4.1,12.9-4.42l1.54,0c.65,0,1.29,0,1.94,0,8,.35,12.74,3,12.74,4.41S109,39.05,100,39.05,85.44,36.17,85.44,34.59Zm50.43,47.27c20.23,3.84,33.44,10.74,34,17.68,0,.2,0,.4,0,.59-.27,8.9-23.45,18.63-58,20.69l-18.41-42q3.28-.1,6.61-.11A195.75,195.75,0,0,1,135.87,81.86ZM71.59,76.35q-4.26.59-8.28,1.35h0c-15.25,2.9-26.5,7.44-32.49,12.87A70.51,70.51,0,0,1,41,62.63C44.42,69.11,56.6,73.76,71.59,76.35ZM30.15,99.76c.26-7,13.53-14,33.95-17.89h0A186.59,186.59,0,0,1,88.84,79l18.43,42c-2.92.11-5.9.18-9,.18-40.45-.46-67.71-11.18-68.15-21C30.16,100.07,30.15,99.91,30.15,99.76ZM139.94,126a110.87,110.87,0,0,0-11.74-2.6,142.17,142.17,0,0,0,22.48-4.9c8.4-2.64,14.61-5.76,18.52-9.24a70.22,70.22,0,0,1-10.17,28C156.75,132.82,150.27,129,139.94,126Zm29.28-35.41c-6-5.46-17.26-10-32.55-12.92q-4.15-.78-8.57-1.38C143.38,73.67,155.57,69,159,62.57c.91,1.43,1.77,2.89,2.58,4.4A69.53,69.53,0,0,1,169.22,90.61Zm-53.7-50.9A6.4,6.4,0,0,0,118.76,35a2.12,2.12,0,0,0,0-.44,2,2,0,0,0,0-.43,5.19,5.19,0,0,0-.36-1.52A70.09,70.09,0,0,1,142.68,44.7,127.08,127.08,0,0,0,115.52,39.71ZM67,38.43A70.14,70.14,0,0,1,81.62,32.6a4.82,4.82,0,0,0-.38,1.56,2,2,0,0,0,0,.43,2.12,2.12,0,0,0,0,.44,6.43,6.43,0,0,0,3.24,4.68L81.66,40a7,7,0,0,0-13.28,1.93,94.18,94.18,0,0,0-11,2.79A70,70,0,0,1,67,38.43Zm-36.2,70.9c3.71,3.34,9.49,6.35,17.25,8.91a136.36,136.36,0,0,0,23.4,5.24c-2.86.49-5.61,1.06-8.22,1.71h0c-12,3-19.68,7.2-22.22,12.14-.89-1.4-1.74-2.82-2.54-4.3A69.65,69.65,0,0,1,30.77,109.33Zm53.86,50.85c-2,1.27-3.22,2.87-3.39,4.8a2,2,0,0,0,0,.43,2.12,2.12,0,0,0,0,.44,5,5,0,0,0,.35,1.49A70.2,70.2,0,0,1,56.9,155,127.31,127.31,0,0,0,84.63,160.18Zm48.4,1.39a69.81,69.81,0,0,1-14.64,5.82,5.1,5.1,0,0,0,.37-1.54,2.12,2.12,0,0,0,0-.44,2,2,0,0,0,0-.43c-.17-2-1.45-3.58-3.48-4.85,1.41-.13,2.8-.28,4.19-.44a6.48,6.48,0,0,0,12.21-1.9,98,98,0,0,0,11.72-3.06A69.92,69.92,0,0,1,133,161.57Z"/>
</svg>